<mxfile host="app.diagrams.net" agent="Mozilla/5.0 (Macintosh; Intel Mac OS X 10_15_7) AppleWebKit/537.36 (KHTML, like Gecko) Chrome/141.0.0.0 Safari/537.36" version="28.2.5">
  <diagram name="Página-1" id="L_QthOs9pcvlBOk8SpzV">
    <mxGraphModel dx="1665" dy="824" grid="1" gridSize="10" guides="1" tooltips="1" connect="1" arrows="1" fold="1" page="1" pageScale="1" pageWidth="827" pageHeight="1169" math="0" shadow="0">
      <root>
        <mxCell id="0" />
        <mxCell id="1" parent="0" />
        <mxCell id="nPvHsShGaWbg2Le5Rree-23" value="" style="rounded=0;whiteSpace=wrap;html=1;" vertex="1" parent="1">
          <mxGeometry x="40" y="920" width="760" height="650" as="geometry" />
        </mxCell>
        <mxCell id="nPvHsShGaWbg2Le5Rree-1" value="Header(boton de hamburguesa, nav bar, logo" style="rounded=0;whiteSpace=wrap;html=1;" vertex="1" parent="1">
          <mxGeometry x="40" y="40" width="760" height="90" as="geometry" />
        </mxCell>
        <mxCell id="nPvHsShGaWbg2Le5Rree-2" value="" style="rounded=0;whiteSpace=wrap;html=1;" vertex="1" parent="1">
          <mxGeometry x="40" y="160" width="760" height="730" as="geometry" />
        </mxCell>
        <mxCell id="nPvHsShGaWbg2Le5Rree-3" value="hero" style="rounded=1;whiteSpace=wrap;html=1;" vertex="1" parent="1">
          <mxGeometry x="40" y="160" width="750" height="280" as="geometry" />
        </mxCell>
        <mxCell id="nPvHsShGaWbg2Le5Rree-4" value="Definición&lt;div&gt;&amp;lt;p&amp;gt;&lt;/div&gt;" style="whiteSpace=wrap;html=1;aspect=fixed;" vertex="1" parent="1">
          <mxGeometry x="120" y="480" width="80" height="80" as="geometry" />
        </mxCell>
        <mxCell id="nPvHsShGaWbg2Le5Rree-5" value="Misión&lt;div&gt;&amp;lt;p&amp;gt;&lt;/div&gt;" style="whiteSpace=wrap;html=1;aspect=fixed;" vertex="1" parent="1">
          <mxGeometry x="290" y="480" width="80" height="80" as="geometry" />
        </mxCell>
        <mxCell id="nPvHsShGaWbg2Le5Rree-6" value="Visión&lt;div&gt;&amp;lt;p&amp;gt;&lt;/div&gt;" style="whiteSpace=wrap;html=1;aspect=fixed;" vertex="1" parent="1">
          <mxGeometry x="470" y="480" width="80" height="80" as="geometry" />
        </mxCell>
        <mxCell id="nPvHsShGaWbg2Le5Rree-7" value="Valores&lt;div&gt;&amp;lt;p&amp;gt;&lt;/div&gt;" style="whiteSpace=wrap;html=1;aspect=fixed;" vertex="1" parent="1">
          <mxGeometry x="640" y="480" width="80" height="80" as="geometry" />
        </mxCell>
        <mxCell id="nPvHsShGaWbg2Le5Rree-8" value="metodología -&amp;gt; img" style="rounded=1;whiteSpace=wrap;html=1;" vertex="1" parent="1">
          <mxGeometry x="50" y="620" width="740" height="240" as="geometry" />
        </mxCell>
        <mxCell id="nPvHsShGaWbg2Le5Rree-14" value="PRODUCTOS" style="rounded=1;whiteSpace=wrap;html=1;" vertex="1" parent="1">
          <mxGeometry x="80" y="960" width="690" height="60" as="geometry" />
        </mxCell>
        <mxCell id="nPvHsShGaWbg2Le5Rree-17" value="PRODUCTO 1" style="swimlane;whiteSpace=wrap;html=1;" vertex="1" parent="1">
          <mxGeometry x="140" y="1059" width="130" height="200" as="geometry" />
        </mxCell>
        <mxCell id="nPvHsShGaWbg2Le5Rree-18" value="PRODUCTO 1" style="swimlane;whiteSpace=wrap;html=1;" vertex="1" parent="1">
          <mxGeometry x="140" y="1329" width="130" height="200" as="geometry" />
        </mxCell>
        <mxCell id="nPvHsShGaWbg2Le5Rree-19" value="PRODUCTO 1" style="swimlane;whiteSpace=wrap;html=1;" vertex="1" parent="1">
          <mxGeometry x="580" y="1059" width="130" height="200" as="geometry" />
        </mxCell>
        <mxCell id="nPvHsShGaWbg2Le5Rree-20" value="PRODUCTO 1" style="swimlane;whiteSpace=wrap;html=1;" vertex="1" parent="1">
          <mxGeometry x="365" y="1059" width="130" height="200" as="geometry" />
        </mxCell>
        <mxCell id="nPvHsShGaWbg2Le5Rree-21" value="PRODUCTO 1" style="swimlane;whiteSpace=wrap;html=1;" vertex="1" parent="1">
          <mxGeometry x="580" y="1329" width="130" height="200" as="geometry" />
        </mxCell>
        <mxCell id="nPvHsShGaWbg2Le5Rree-22" value="PRODUCTO 1" style="swimlane;whiteSpace=wrap;html=1;" vertex="1" parent="1">
          <mxGeometry x="370" y="1329" width="130" height="200" as="geometry" />
        </mxCell>
        <mxCell id="nPvHsShGaWbg2Le5Rree-24" value="" style="rounded=0;whiteSpace=wrap;html=1;" vertex="1" parent="1">
          <mxGeometry x="40" y="1600" width="760" height="250" as="geometry" />
        </mxCell>
        <mxCell id="nPvHsShGaWbg2Le5Rree-25" value="DONDE ENCONTRARNOS" style="rounded=1;whiteSpace=wrap;html=1;" vertex="1" parent="1">
          <mxGeometry x="130" y="1640" width="120" height="60" as="geometry" />
        </mxCell>
        <mxCell id="nPvHsShGaWbg2Le5Rree-26" value="LISTA DESORDENADA DE DONDE ENCONTRARNOS" style="rounded=1;whiteSpace=wrap;html=1;" vertex="1" parent="1">
          <mxGeometry x="390" y="1640" width="280" height="60" as="geometry" />
        </mxCell>
        <mxCell id="nPvHsShGaWbg2Le5Rree-27" value="REDES /MAIL /DIRECCIÓN / COPYRIGHT" style="rounded=1;whiteSpace=wrap;html=1;" vertex="1" parent="1">
          <mxGeometry x="80" y="1810" width="680" height="30" as="geometry" />
        </mxCell>
        <mxCell id="nPvHsShGaWbg2Le5Rree-28" value="CONTACTANOS: NOMBRE, ASUNTO, MAIL" style="rounded=0;whiteSpace=wrap;html=1;" vertex="1" parent="1">
          <mxGeometry x="80" y="1724" width="670" height="60" as="geometry" />
        </mxCell>
      </root>
    </mxGraphModel>
  </diagram>
</mxfile>
